<?xml version="1.0" encoding="utf-8"?>
<!-- Generator: Adobe Illustrator 19.1.1, SVG Export Plug-In . SVG Version: 6.00 Build 0)  -->
<svg version="1.1" id="圖層_1" xmlns="http://www.w3.org/2000/svg" xmlns:xlink="http://www.w3.org/1999/xlink" x="0px" y="0px"
	 viewBox="0 0 2835.1 2835.1" style="enable-background:new 0 0 2835.1 2835.1;" xml:space="preserve">
<style type="text/css">
	.st0{fill:#BF3836;}
	.st1{fill:#FFFFFF;}
</style>
<g>
	<circle class="st0" cx="1419.4" cy="1411.5" r="1417.3"/>
	<path class="st1" d="M1419.4,708.8c-389.8,0-702.8,313-702.8,702.8c0,289.4,171.3,531.5,419.3,643.7c0-47.2,0-106.3,11.8-159.4
		c11.8-59.1,88.6-383.9,88.6-383.9s-23.6-47.2-23.6-112.2c0-106.3,59.1-183.1,135.8-183.1c65,0,94.5,47.2,94.5,106.3
		c0,65-41.3,159.4-59.1,248c-17.7,76.8,41.3,135.8,112.2,135.8c135.8,0,224.4-171.3,224.4-372c0-153.5-106.3-265.7-289.4-265.7
		c-212.6,0-342.5,159.4-342.5,336.6c0,59.1,17.7,106.3,47.2,135.8c11.8,17.7,17.7,23.6,11.8,41.3c-5.9,11.8-11.8,41.3-11.8,59.1
		c-5.9,17.7-17.7,23.6-35.4,17.7c-100.4-41.3-141.7-147.6-141.7-265.7c0-200.8,165.4-437,502-437c265.7,0,442.9,194.9,442.9,401.6
		c0,277.6-153.5,478.3-378,478.3c-76.8,0-147.6-41.3-171.3-88.6c0,0-41.3,159.4-47.2,194.9c-17.7,53.1-41.3,106.3-70.9,147.6
		c65,17.7,129.9,29.5,200.8,29.5c389.8,0,702.8-313,702.8-702.8C2122.2,1021.8,1809.2,708.8,1419.4,708.8L1419.4,708.8z"/>
</g>
</svg>
