<?xml version="1.0" encoding="utf-8"?>
<!-- Generator: Adobe Illustrator 19.1.1, SVG Export Plug-In . SVG Version: 6.00 Build 0)  -->
<svg version="1.1" id="圖層_1" xmlns="http://www.w3.org/2000/svg" xmlns:xlink="http://www.w3.org/1999/xlink" x="0px" y="0px"
	 viewBox="0 0 2834.7 2834.7" style="enable-background:new 0 0 2834.7 2834.7;" xml:space="preserve">
<style type="text/css">
	.st0{fill:url(#SVGID_1_);}
	.st1{fill:#FFFFFF;}
</style>
<g>
	<linearGradient id="SVGID_1_" gradientUnits="userSpaceOnUse" x1="8.762981e-007" y1="1417.3656" x2="2834.7312" y2="1417.3656">
		<stop  offset="0" style="stop-color:#2882B3"/>
		<stop  offset="1" style="stop-color:#156FA8"/>
	</linearGradient>
	<path class="st0" d="M2490.7,0H344C154,0,0,154,0,344v2146.7c0,190,154,344,344,344h2146.7c190,0,344-154,344-344V344
		C2834.7,154,2680.7,0,2490.7,0z"/>
	<g>
		<rect x="693.5" y="1166" class="st1" width="311.2" height="1005.5"/>
		<path class="st1" d="M1805.3,1135.3c-213.2,0-303,166.1-303,166.1V1166h-298.5v1005.5h298.5v-527.8
			c0-141.4,65.1-225.6,189.7-225.6c114.5,0,169.5,80.8,169.5,225.6v527.8h309.7l0-636.7C2171.1,1265.5,2018.5,1135.3,1805.3,1135.3z
			"/>
		<path class="st1" d="M847.7,663.2c-101.6,0-184,83.1-184,185.5c0,102.5,82.4,185.5,184,185.5c101.6,0,184-83.1,184-185.5
			C1031.7,746.3,949.3,663.2,847.7,663.2z"/>
	</g>
</g>
</svg>
