<?xml version="1.0" encoding="utf-8"?>
<!-- Generator: Adobe Illustrator 19.1.1, SVG Export Plug-In . SVG Version: 6.00 Build 0)  -->
<svg version="1.1" id="圖層_1" xmlns="http://www.w3.org/2000/svg" xmlns:xlink="http://www.w3.org/1999/xlink" x="0px" y="0px"
	 viewBox="0 0 2834.7 2834.7" style="enable-background:new 0 0 2834.7 2834.7;" xml:space="preserve">
<style type="text/css">
	.st0{fill:#454444;}
	.st1{fill:#FFFFFF;}
</style>
<g>
	<path class="st0" d="M2490.7,0H344C154,0,0,154,0,344v2146.7c0,190,154,344,344,344h2146.7c190,0,344-154,344-344V344
		C2834.7,154,2680.7,0,2490.7,0z"/>
	<path class="st1" d="M1842.6,726.4H992.2c-147.6,0-265.7,118.1-265.7,265.7v850.4c0,147.6,118.1,265.7,265.7,265.7h850.4
		c147.6,0,265.7-118.1,265.7-265.7V992.2C2108.3,844.5,1990.2,726.4,1842.6,726.4L1842.6,726.4z M1919.3,885.9h29.5v236.2h-236.2
		V885.9H1919.3z M1222.5,1275.6c41.3-59.1,118.1-100.4,194.9-100.4s153.5,41.3,194.9,100.4c29.5,41.3,47.2,88.6,47.2,141.7
		c0,135.8-112.2,242.1-242.1,242.1c-129.9,0-242.1-106.3-242.1-242.1C1175.2,1364.2,1193,1317,1222.5,1275.6z M1972.5,1842.6
		c0,70.9-59.1,129.9-129.9,129.9H992.2c-70.9,0-129.9-59.1-129.9-129.9v-566.9h206.7c-17.7,41.3-29.5,94.5-29.5,141.7
		c0,206.7,171.3,378,378,378s378-171.3,378-378c0-47.2-11.8-100.4-29.5-141.7h206.7L1972.5,1842.6z"/>
</g>
</svg>
