<?xml version="1.0" encoding="utf-8"?>
<!-- Generator: Adobe Illustrator 19.1.1, SVG Export Plug-In . SVG Version: 6.00 Build 0)  -->
<svg version="1.1" id="圖層_1" xmlns="http://www.w3.org/2000/svg" xmlns:xlink="http://www.w3.org/1999/xlink" x="0px" y="0px"
	 viewBox="0 0 2835.1 2835.1" style="enable-background:new 0 0 2835.1 2835.1;" xml:space="preserve">
<style type="text/css">
	.st0{fill:#D8222E;}
	.st1{fill:#FFFFFF;}
</style>
<g>
	<path class="st0" d="M1421.3,2834.2c777.9,0,1415.3-637.4,1415.3-1415.3c0-780.5-637.4-1417.9-1415.3-1417.9
		C640.8,0.9,3.4,638.3,3.4,1418.8C3.4,2196.7,640.8,2834.2,1421.3,2834.2L1421.3,2834.2z"/>
	<g>
		<polygon class="st1" points="2135.7,1231.3 2135.7,1002.8 2364.1,1002.8 2364.1,888.6 2135.7,888.6 2135.7,660.1 2021.5,660.1 
			2021.5,888.6 1793,888.6 1793,1002.8 2021.5,1002.8 2021.5,1231.3 		"/>
		<path class="st1" d="M641,1994.6c0,208.7,239.9,332.8,527.6,332.8c393.4,0,549.7-208.5,549.7-379.7c0-139.6-52.1-230.8-209.8-349
			c-160-116.7-199-182.6-46.4-300.6c86-66.5,146.3-155.2,146.3-264.7c0-119.3-48.8-227.5-140.5-280h130l110.7-116.1
			c0,0-417.1,0-495.2,0c-309.1,0-460.7,185.3-460.7,389.1c0,208.3,142.9,372.3,421.9,372.3c-43.3,87.3-25.9,168,44.9,225.7
			C743,1624.4,641,1833.5,641,1994.6z M938.9,1023.3c-23.1-175.3,66.5-309.4,199.9-305.5c133.4,4,247.6,147.8,270.6,323.1
			c23,175.3-53.8,288.1-187.2,284.1C1088.8,1321,962,1198.6,938.9,1023.3z M1194.9,1683.7c220.6,0,352.1,137.4,352.1,281.5
			c0,151.2-122.8,269.4-377,269.4c-198.8,0-342.4-125.9-342.4-277.1C827.6,1809.3,996.1,1681.5,1194.9,1683.7z"/>
	</g>
</g>
</svg>
