<?xml version="1.0" encoding="utf-8"?>
<!-- Generator: Adobe Illustrator 19.1.1, SVG Export Plug-In . SVG Version: 6.00 Build 0)  -->
<svg version="1.1" id="圖層_1" xmlns="http://www.w3.org/2000/svg" xmlns:xlink="http://www.w3.org/1999/xlink" x="0px" y="0px"
	 viewBox="0 0 2834.7 2834.7" style="enable-background:new 0 0 2834.7 2834.7;" xml:space="preserve">
<style type="text/css">
	.st0{fill:#34A0D2;}
	.st1{fill:#FFFFFF;}
</style>
<g>
	<path class="st0" d="M2490.7,0H344C154,0,0,154,0,344v2146.7c0,190,154,344,344,344h2146.7c190,0,344-154,344-344V344
		C2834.7,154,2680.7,0,2490.7,0z"/>
	<path class="st1" d="M2325.7,853.9c-66.8,29.7-138.6,49.7-214,58.7c77-46.1,136-119.2,163.9-206.2c-73.2,43.5-153.2,74-236.7,90.4
		c-67.9-72.4-164.8-117.6-272-117.6c-205.7,0-372.6,166.8-372.6,372.7c0,29.2,3.3,57.6,9.6,84.9
		c-309.7-15.6-584.3-163.9-768.1-389.4c-32.1,55.1-50.5,119.1-50.5,187.4c0,129.3,65.8,243.3,165.8,310.2
		c-59.2-1.8-117.1-17.8-168.8-46.6v4.7c0,180.6,128.4,331.1,298.9,365.4c-31.3,8.6-64.2,13.1-98.2,13.1c-24,0-47.4-2.3-70.2-6.6
		c47.4,148,185.1,255.7,348.1,258.8c-127.5,100-288.3,159.6-462.8,159.6c-30.1,0-59.8-1.8-88.9-5.3
		c164.9,105.8,360.8,167.5,571.3,167.5c685.4,0,1060.3-567.9,1060.3-1060.3c0-16.2-0.4-32.2-1.1-48.2
		C2212.5,994.2,2275.6,928.8,2325.7,853.9L2325.7,853.9z"/>
</g>
</svg>
