<?xml version="1.0" encoding="utf-8"?>
<!-- Generator: Adobe Illustrator 19.1.1, SVG Export Plug-In . SVG Version: 6.00 Build 0)  -->
<svg version="1.1" id="圖層_1" xmlns="http://www.w3.org/2000/svg" xmlns:xlink="http://www.w3.org/1999/xlink" x="0px" y="0px"
	 viewBox="0 0 2835.1 2835.1" style="enable-background:new 0 0 2835.1 2835.1;" xml:space="preserve">
<style type="text/css">
	.st0{fill:#54B332;}
	.st1{fill:#FFFFFF;}
</style>
<g>
	<path class="st0" d="M1418.8,2834.2c777.9,0,1415.3-637.4,1415.3-1415.3c0-780.5-637.4-1417.9-1415.3-1417.9
		C638.3,0.9,0.9,638.3,0.9,1418.8C0.9,2196.7,638.3,2834.2,1418.8,2834.2L1418.8,2834.2z"/>
	<g>
		<path class="st1" d="M1417.5,565.1c506.6,0,917.2,328.8,917.2,734.4c0,141.7-50.1,274-136.9,386.2c-4.3,6.4-9.9,13.4-17,21.2
			l-0.5,0.6c-29.6,35.5-63,68.8-99.7,99.5c-253.6,234.4-671.1,513.6-726.2,470.5c-47.9-37.4,78.9-220.5-67.4-251
			c-10.2-1.2-20.4-2.4-30.5-3.9l-0.2,0v0c-429.6-61-755.9-361.6-755.9-723.1C500.3,893.9,911,565.1,1417.5,565.1L1417.5,565.1z"/>
		<path class="st0" d="M885.4,1533.8h185c26.3,0,47.8-21.5,47.8-47.8v-4c0-26.3-21.5-47.8-47.8-47.8H937.2v-303
			c0-26.3-21.5-47.8-47.8-47.8h-4c-26.3,0-47.8,21.5-47.8,47.8V1486C837.5,1512.3,859.1,1533.8,885.4,1533.8z M2031.6,1311.4v-4
			c0-26.3-21.5-47.8-47.8-47.8h-133.2v-75.7h133.2c26.3,0,47.8-21.5,47.8-47.8v-4c0-26.3-21.5-47.8-47.8-47.8h-185
			c-26.3,0-47.8,21.5-47.8,47.8v354.8c0,26.3,21.5,47.8,47.8,47.8h185c26.3,0,47.8-21.5,47.8-47.8v-4c0-26.3-21.5-47.8-47.8-47.8
			h-133.2v-75.7h133.2C2010.1,1359.3,2031.6,1337.7,2031.6,1311.4L2031.6,1311.4z M1675.9,1519.6L1675.9,1519.6
			c8.9-8.9,13.8-21,13.8-33.6v-354.8c0-26.3-21.5-47.8-47.8-47.8h-4c-26.3,0-47.8,21.5-47.8,47.8v208.3l-172.9-231.9
			c-8.3-14.4-23.8-24.2-41.5-24.2h-4c-26.3,0-47.8,21.5-47.8,47.8V1486c0,26.3,21.5,47.8,47.8,47.8h4c26.3,0,47.8-21.5,47.8-47.8
			v-212.2l174.1,237.9c1.1,1.7,2.2,3.3,3.5,4.8l0,0c4.8,6.5,11.3,11,18.6,13.7c5.6,2.3,11.7,3.6,18.1,3.6h4c7.8,0,15.5-1.9,22.3-5.6
			C1669,1526,1673,1523,1675.9,1519.6L1675.9,1519.6z M1204.6,1533.8h4c26.3,0,47.8-21.5,47.8-47.8v-354.8
			c0-26.3-21.5-47.8-47.8-47.8h-4c-26.3,0-47.8,21.5-47.8,47.8V1486C1156.8,1512.3,1178.3,1533.8,1204.6,1533.8L1204.6,1533.8z"/>
	</g>
</g>
</svg>
