<?xml version="1.0" encoding="utf-8"?>
<!-- Generator: Adobe Illustrator 19.1.1, SVG Export Plug-In . SVG Version: 6.00 Build 0)  -->
<svg version="1.1" id="圖層_1" xmlns="http://www.w3.org/2000/svg" xmlns:xlink="http://www.w3.org/1999/xlink" x="0px" y="0px"
	 viewBox="0 0 2835.1 2835.1" style="enable-background:new 0 0 2835.1 2835.1;" xml:space="preserve">
<style type="text/css">
	.st0{fill:url(#SVGID_1_);}
	.st1{fill:#FFFFFF;}
</style>
<g>
	<g>
		
			<linearGradient id="SVGID_1_" gradientUnits="userSpaceOnUse" x1="-68.24" y1="721.257" x2="331.057" y2="321.9601" gradientTransform="matrix(5.0206 0 0 -5.0206 757.787 4036.3181)">
			<stop  offset="0" style="stop-color:#2882B3"/>
			<stop  offset="1" style="stop-color:#156FA8"/>
		</linearGradient>
		<path class="st0" d="M1417.5,0C634.6,0,0,634.7,0,1417.5s634.6,1417.5,1417.5,1417.5s1417.5-634.6,1417.5-1417.5
			C2835.1,634.7,2200.4,0,1417.5,0z M1039.3,2102.9H728.1V1097.3h311.2V2102.9z M882.2,965.7c-101.6,0-184-83.1-184-185.5
			c0-102.5,82.4-185.5,184-185.5s184,83.1,184,185.5C1066.3,882.6,983.9,965.7,882.2,965.7z M2205.7,2102.9H1896V1575
			c0-144.8-55-225.6-169.5-225.6c-124.6,0-189.7,84.2-189.7,225.6v527.8h-298.5V1097.3h298.5v135.4c0,0,89.8-166.1,303-166.1
			c213.2,0,365.8,130.2,365.8,399.5L2205.7,2102.9L2205.7,2102.9z"/>
	</g>
	<g>
		<rect x="728.1" y="1097.3" class="st1" width="311.2" height="1005.5"/>
		<path class="st1" d="M1839.8,1066.7c-213.2,0-303,166.1-303,166.1v-135.4h-298.5v1005.5h298.5V1575
			c0-141.4,65.1-225.6,189.7-225.6c114.5,0,169.5,80.8,169.5,225.6v527.8h309.7l0-636.7C2205.7,1196.9,2053.1,1066.7,1839.8,1066.7z
			"/>
		<path class="st1" d="M882.2,594.6c-101.6,0-184,83.1-184,185.5c0,102.5,82.4,185.5,184,185.5c101.6,0,184-83.1,184-185.5
			C1066.3,677.7,983.9,594.6,882.2,594.6z"/>
	</g>
</g>
</svg>
