<?xml version="1.0" encoding="utf-8"?>
<!-- Generator: Adobe Illustrator 19.1.1, SVG Export Plug-In . SVG Version: 6.00 Build 0)  -->
<svg version="1.1" id="圖層_1" xmlns="http://www.w3.org/2000/svg" xmlns:xlink="http://www.w3.org/1999/xlink" x="0px" y="0px"
	 viewBox="0 0 2835.1 2835.1" style="enable-background:new 0 0 2835.1 2835.1;" xml:space="preserve">
<style type="text/css">
	.st0{fill:#EC6538;}
	.st1{fill:#FFFFFF;}
</style>
<g>
	<path class="st0" d="M1418.8,2834.2c777.9,0,1415.3-637.4,1415.3-1415.3c0-780.5-637.4-1417.9-1415.3-1417.9
		C638.3,0.9,0.9,638.3,0.9,1418.8C0.9,2196.7,638.3,2834.2,1418.8,2834.2L1418.8,2834.2z"/>
	<g>
		<path class="st1" d="M1250,2143c-347.4,34.5-647.4-122.8-670-350.6c-22.6-228.1,240.9-440.7,588-475.1
			c347.4-34.5,647.4,122.8,669.7,350.6C1860.6,1896,1597.1,2108.8,1250,2143 M1944.6,1385.9c-29.5-9-49.8-14.8-34.5-53.6
			c33.6-84.3,37.1-156.9,0.6-209c-68-97.3-254.5-92.1-468.2-2.6c0,0-67.2,29.2-49.8-23.7c32.7-105.7,27.8-194-23.2-245.2
			c-115.8-116.1-424.2,4.3-688.5,268.7c-197.7,197.7-312.7,407.7-312.7,589.2c0,346.9,445,557.9,880.2,557.9
			c570.7,0,950.2-331.5,950.2-594.7C2199.1,1513.6,2065,1423.2,1944.6,1385.9"/>
		<path class="st1" d="M2323.6,750.9c-137.8-152.9-341.1-211.1-528.7-171.1l0,0c-43.4,9.3-70.9,52.1-61.7,95.3
			c9.3,43.4,51.8,70.9,95.3,61.7c133.5-28.4,277.9,13,375.8,121.6c97.9,108.6,124.5,256.5,82.5,386.2l0,0
			c-13.6,42.3,9.6,87.4,51.8,101c42.3,13.6,87.4-9.6,101-51.5v-0.3C2498.7,1111.7,2461.4,903.5,2323.6,750.9"/>
		<path class="st1" d="M2111.9,942c-67.2-74.4-166.2-102.8-257.4-83.1c-37.3,7.8-61.1,44.9-53.3,82.2c8.1,37.3,44.9,61.1,81.9,53
			l0,0c44.6-9.6,93.2,4.3,125.9,40.5c32.7,36.5,41.7,86,27.5,129.4l0,0c-11.6,36.2,8.1,75.3,44.6,87.1c36.5,11.6,75.3-8.1,87.1-44.6
			C2197,1117.8,2179.1,1016.4,2111.9,942"/>
		<path class="st1" d="M1269.1,1730.1c-12.2,20.8-39.1,30.7-59.9,22c-20.8-8.4-27.2-31.8-15.3-52.1c12.2-20.3,37.9-30.1,58.5-22
			C1273.2,1685.5,1280.7,1709,1269.1,1730.1 M1158.2,1872c-33.6,53.6-105.7,77-159.8,52.4c-53.3-24.3-69.2-86.6-35.6-139
			c33.3-52.1,102.8-75.3,156.6-52.7C1173.8,1756.2,1191.2,1817.8,1158.2,1872 M1284.4,1492.7c-165.3-43.1-352.1,39.4-423.9,185
			c-73.3,148.5-2.3,313.6,164.5,367.4c173.1,55.9,377-29.8,447.9-189.9C1543,1698.3,1455.6,1537,1284.4,1492.7"/>
	</g>
</g>
</svg>
