<?xml version="1.0" encoding="utf-8"?>
<!-- Generator: Adobe Illustrator 19.1.1, SVG Export Plug-In . SVG Version: 6.00 Build 0)  -->
<svg version="1.1" id="圖層_1" xmlns="http://www.w3.org/2000/svg" xmlns:xlink="http://www.w3.org/1999/xlink" x="0px" y="0px"
	 viewBox="0 0 2835.1 2835.1" style="enable-background:new 0 0 2835.1 2835.1;" xml:space="preserve">
<style type="text/css">
	.st0{fill:#1D99D2;}
	.st1{fill:#FFFFFF;}
</style>
<g>
	<path class="st0" d="M1418.8,2834.2c777.9,0,1415.3-637.4,1415.3-1415.3c0-780.5-637.4-1417.9-1415.3-1417.9
		C638.3,0.9,0.9,638.3,0.9,1418.8C0.9,2196.7,638.3,2834.2,1418.8,2834.2L1418.8,2834.2z"/>
	<path class="st1" d="M791.5,1327.5c-5.3-12.7-8-30-8-52c0-13.3,3.7-29.7,11-49c7.3-19.3,15.3-34.3,24-45c-0.7-14.7,1.8-32.3,7.5-53
		c5.7-20.7,13.2-35,22.5-43c0-92.7,30.8-188.8,92.5-288.5s134.2-169.5,217.5-209.5c92.7-44,200.7-66,324-66
		c88.7,0,177.3,18.3,266,55c32.7,14,62.7,30,90,48s51,36.7,71,56c20,19.3,38.3,42,55,68s30.7,50.7,42,74
		c11.3,23.3,22.2,51.5,32.5,84.5s18.8,62.8,25.5,89.5c6.7,26.7,14,59.3,22,98l1,5c36.7,55.3,55,105.3,55,150c0,9.3-3,22.7-9,40
		c-6,17.3-9,30-9,38c0,0.7,0.5,1.8,1.5,3.5c1,1.7,2.2,3.3,3.5,5c1.3,1.7,2,2.8,2,3.5c51.3,76,91.5,147.5,120.5,214.5
		s43.5,136.5,43.5,208.5c0,28.7-6.5,62-19.5,100s-31.5,57-55.5,57c-6,0-12.5-2.5-19.5-7.5s-13.3-10.8-19-17.5
		c-5.7-6.7-12-15.3-19-26s-12.3-19.5-16-26.5c-3.7-7-8.2-15.7-13.5-26c-5.3-10.3-8.3-16.2-9-17.5c-0.7-0.7-1.7-1-3-1l-5,4
		c-39.3,102.7-83.3,177-132,223c13.3,13.3,33.8,26.2,61.5,38.5c27.7,12.3,50.7,26.2,69,41.5c18.3,15.3,30.2,37,35.5,65
		c-1.3,2.7-2.7,8-4,16c-1.3,8-3.7,14-7,18c-42.7,64.7-143.3,97-302,97c-35.3,0-72.2-3-110.5-9s-71-12.7-98-20
		c-27-7.3-61.8-17.3-104.5-30c-10-3.3-17.7-5.7-23-7c-9.3-2.7-24.7-4.2-46-4.5c-21.3-0.3-34.7-0.8-40-1.5
		c-27.3,30-69.8,51.7-127.5,65c-57.7,13.3-113.8,20-168.5,20c-23.3,0-46.3-0.5-69-1.5s-53.7-4-93-9c-39.3-5-73-11.8-101-20.5
		c-28-8.7-52.8-22-74.5-40c-21.7-18-32.5-39.3-32.5-64c0-26.7,3.3-46.5,10-59.5s20.3-29.2,41-48.5c7.3-1.3,20.8-5.7,40.5-13
		c19.7-7.3,36.2-11.3,49.5-12c2.7,0,7.3-0.7,14-2c1.3-1.3,2-2.7,2-4l-2-3c-32-7.3-68-42.5-108-105.5s-64.3-115.2-73-156.5l-5-3
		c-2.7,0-6.7,6.7-12,20c-12,27.3-30.2,52.2-54.5,74.5c-24.3,22.3-50.2,34.8-77.5,37.5h-1c-2.7,0-4.7-1.5-6-4.5s-3-4.8-5-5.5
		c-15.3-36-23-69.3-23-100C539.5,1610.2,623.5,1454.9,791.5,1327.5z"/>
</g>
</svg>
