<?xml version="1.0" encoding="utf-8"?>
<!-- Generator: Adobe Illustrator 19.1.1, SVG Export Plug-In . SVG Version: 6.00 Build 0)  -->
<svg version="1.1" id="圖層_1" xmlns="http://www.w3.org/2000/svg" xmlns:xlink="http://www.w3.org/1999/xlink" x="0px" y="0px"
	 viewBox="0 0 2834.7 2834.7" style="enable-background:new 0 0 2834.7 2834.7;" xml:space="preserve">
<style type="text/css">
	.st0{fill:#43B035;}
	.st1{fill:#FFFFFF;}
</style>
<g>
	<path class="st0" d="M2490.7,0H344C154,0,0,154,0,344v2146.7c0,190,154,344,344,344h2146.7c190,0,344-154,344-344V344
		C2834.7,154,2680.7,0,2490.7,0z"/>
	<g>
		<path class="st1" d="M1897.4,1057.2c-228.8,12-427.7,81.3-589.3,238c-163.2,158.3-237.7,352.3-217.3,592.8
			c-89.4-11.1-170.9-23.3-252.8-30.2c-28.3-2.4-61.9,1-85.8,14.5c-79.5,44.9-155.8,95.6-246.2,152.1c16.6-75,27.3-140.7,46.3-203.9
			c14-46.4,7.5-72.3-35.3-102.5c-274.6-193.9-390.4-484.1-303.8-782.9c80.2-276.4,277-444,544.5-531.4
			c365.1-119.2,775.3,2.4,997.3,292.2C1835.3,800.7,1884.4,918.2,1897.4,1057.2L1897.4,1057.2z M844.4,964.1
			c2.1-54.6-45.2-103.9-101.5-105.5c-57.6-1.7-104.9,42.3-106.6,99.1c-1.7,57.5,42.3,103.6,100.3,105.1
			C794.1,1064.1,842.3,1020.1,844.4,964.1L844.4,964.1z M1393.8,858.5c-56.4,1-104.1,49.1-103.1,104c1,56.9,47.8,101.4,105.9,100.7
			c58.2-0.7,102.3-45.7,101.8-103.7C1497.8,902.4,1451.2,857.5,1393.8,858.5z"/>
		<path class="st1" d="M2411.4,2483.5c-72.4-32.3-138.9-80.7-209.7-88c-70.5-7.4-144.6,33.3-218.3,40.8
			c-224.6,23-425.8-39.6-591.8-193.1c-315.6-291.9-270.5-739.4,94.6-978.6c324.5-212.6,800.4-141.7,1029.2,153.3
			c199.7,257.4,176.2,599.1-67.5,815.3c-70.5,62.6-95.9,114.1-50.7,196.6C2405.6,2445,2406.6,2464.3,2411.4,2483.5L2411.4,2483.5z
			 M1586.8,1685.1c46.1,0,84.1-36,85.8-81.6c1.8-48.2-36.9-88.7-85.2-88.9c-47.8-0.2-87.9,40.8-86.2,88.3
			C1502.7,1648.3,1541,1685,1586.8,1685.1L1586.8,1685.1z M2118.4,1514.8c-44.8-0.3-82.8,36.3-84.6,81.5
			c-1.9,48.4,35.6,88.1,83.5,88.2c46.3,0.2,82.8-34.8,84.5-80.9C2203.6,1555.1,2166,1515.1,2118.4,1514.8z"/>
	</g>
</g>
</svg>
