<?xml version="1.0" encoding="utf-8"?>
<!-- Generator: Adobe Illustrator 19.1.1, SVG Export Plug-In . SVG Version: 6.00 Build 0)  -->
<svg version="1.1" id="圖層_1" xmlns="http://www.w3.org/2000/svg" xmlns:xlink="http://www.w3.org/1999/xlink" x="0px" y="0px"
	 viewBox="0 0 2834.7 2834.7" style="enable-background:new 0 0 2834.7 2834.7;" xml:space="preserve">
<style type="text/css">
	.st0{fill:#54B332;}
	.st1{fill:#FFFFFF;}
</style>
<g>
	<path class="st0" d="M2490.7,0H344C154,0,0,154,0,344v2146.7c0,190,154,344,344,344h2146.7c190,0,344-154,344-344V344
		C2834.7,154,2680.7,0,2490.7,0z"/>
	<path class="st1" d="M1414.6,469.9c574.8,0,1040.7,373.1,1040.7,833.4c0,160.8-56.9,310.9-155.4,438.2
		c-4.9,7.2-11.2,15.3-19.3,24.1l-0.6,0.7c-33.6,40.2-71.5,78-113.2,112.9c-287.8,266-761.5,582.7-824,533.9
		c-54.4-42.5,89.5-250.2-76.5-284.8c-11.6-1.3-23.1-2.8-34.6-4.4l-0.2,0v0c-487.5-69.3-857.7-410.3-857.7-820.5
		C373.9,843,839.8,469.9,1414.6,469.9L1414.6,469.9z"/>
	<path class="st0" d="M810.8,1569.1h209.9c29.9,0,54.3-24.4,54.3-54.3v-4.5c0-29.9-24.4-54.3-54.3-54.3H869.6v-343.8
		c0-29.9-24.4-54.3-54.3-54.3h-4.5c-29.9,0-54.3,24.4-54.3,54.3v402.6C756.5,1544.6,780.9,1569.1,810.8,1569.1z M2111.4,1316.7v-4.5
		c0-29.9-24.4-54.3-54.3-54.3H1906V1172h151.1c29.9,0,54.3-24.4,54.3-54.3v-4.5c0-29.9-24.4-54.3-54.3-54.3h-209.9
		c-29.9,0-54.3,24.4-54.3,54.3v402.6c0,29.9,24.4,54.3,54.3,54.3h209.9c29.9,0,54.3-24.4,54.3-54.3v-4.5c0-29.9-24.4-54.3-54.3-54.3
		H1906V1371h151.1C2087,1371,2111.4,1346.6,2111.4,1316.7L2111.4,1316.7z M1707.8,1552.9L1707.8,1552.9
		c10.1-10.1,15.7-23.8,15.7-38.1v-402.6c0-29.9-24.4-54.3-54.3-54.3h-4.5c-29.9,0-54.3,24.4-54.3,54.3v236.3l-196.2-263.1
		c-9.4-16.4-27-27.4-47.1-27.4h-4.5c-29.9,0-54.3,24.4-54.3,54.3v402.6c0,29.9,24.4,54.3,54.3,54.3h4.5c29.9,0,54.3-24.4,54.3-54.3
		v-240.7l197.6,269.9c1.2,1.9,2.5,3.7,4,5.4l0,0c5.4,7.4,12.9,12.5,21.1,15.6c6.4,2.6,13.3,4.1,20.6,4.1h4.5
		c8.8,0,17.6-2.2,25.4-6.3C1700,1560.1,1704.5,1556.8,1707.8,1552.9L1707.8,1552.9z M1173,1569.1h4.5c29.9,0,54.3-24.4,54.3-54.3
		v-402.6c0-29.9-24.4-54.3-54.3-54.3h-4.5c-29.9,0-54.3,24.4-54.3,54.3v402.6C1118.8,1544.6,1143.2,1569.1,1173,1569.1L1173,1569.1z
		"/>
</g>
</svg>
