<?xml version="1.0" encoding="utf-8"?>
<!-- Generator: Adobe Illustrator 19.1.1, SVG Export Plug-In . SVG Version: 6.00 Build 0)  -->
<svg version="1.1" id="圖層_1" xmlns="http://www.w3.org/2000/svg" xmlns:xlink="http://www.w3.org/1999/xlink" x="0px" y="0px"
	 viewBox="0 0 2834.7 2834.7" style="enable-background:new 0 0 2834.7 2834.7;" xml:space="preserve">
<style type="text/css">
	.st0{fill:#3B5792;}
	.st1{fill:#FFFFFF;}
</style>
<g>
	<path class="st0" d="M2490.7-1H344C154-1,0,153.1,0,343.1v2146.7c0,190,154,344,344,344h2146.7c190,0,344-154,344-344V343.1
		C2834.7,153.1,2680.7-1,2490.7-1z"/>
	<path class="st1" d="M1955.9,2835.7V1737.9h368.5l55.2-427.8h-423.7v-273.2c0-123.9,34.4-208.3,212-208.3l226.5-0.1V445.9
		c-39.2-5.2-173.7-16.9-330.1-16.9c-326.6,0-550.3,199.4-550.3,565.5v315.5h-369.4v427.8h369.4v1097.8L1955.9,2835.7L1955.9,2835.7z
		"/>
</g>
</svg>
