<?xml version="1.0" encoding="utf-8"?>
<!-- Generator: Adobe Illustrator 19.1.1, SVG Export Plug-In . SVG Version: 6.00 Build 0)  -->
<svg version="1.1" id="圖層_1" xmlns="http://www.w3.org/2000/svg" xmlns:xlink="http://www.w3.org/1999/xlink" x="0px" y="0px"
	 viewBox="0 0 2834.7 2834.7" style="enable-background:new 0 0 2834.7 2834.7;" xml:space="preserve">
<style type="text/css">
	.st0{fill:#D8222E;}
	.st1{fill:#FFFFFF;}
</style>
<g>
	<path id="google-plus-square-rounded-icon_1_" class="st0" d="M1094.6,1270.6C940.9,1266,794.8,1125,768.3,923.2
		c-26.5-201.9,76.5-356.3,230.2-351.8c153.6,4.6,285.1,170.2,311.6,372C1336.7,1145.3,1248.2,1275.2,1094.6,1270.6z M1063.1,1683.7
		c-229-2.5-423,144.7-423,315.3c0,174.1,165.4,319.1,394.3,319.1c292.7,0,434.2-136,434.2-310.2
		C1468.6,1841.9,1317.1,1683.7,1063.1,1683.7z M2834.7,344v2146.7c0,190-154,344-344,344H344c-190,0-344-154-344-344V344
		C0,154,154,0,344,0h2146.7C2680.7,0,2834.7,154,2834.7,344z M1665.8,1987.6c0-160.8-60-265.8-241.6-401.9
		c-184.2-134.3-229.2-210.2-53.4-346.2c99.1-76.6,168.5-178.7,168.5-304.8c0-137.3-56.2-261.9-161.8-322.4h149.7l127.4-133.7
		c0,0-480.4,0-570.2,0c-356,0-530.5,213.4-530.5,448.1c0,239.9,164.5,428.8,485.9,428.8c-49.8,100.6-29.8,193.5,51.7,259.9
		c-548.8,0-666.2,240.8-666.2,426.3c0,240.3,276.3,383.2,607.6,383.2C1485.8,2424.9,1665.8,2184.8,1665.8,1987.6z M2409.5,768
		h-263.1V505h-131.5V768h-263.1v131.5h263.1v263.1h131.5V899.6h263.1L2409.5,768L2409.5,768z"/>
	<g>
		<polygon class="st1" points="2146.4,1162.6 2146.4,899.6 2409.5,899.6 2409.5,768 2146.4,768 2146.4,505 2014.9,505 2014.9,768 
			1751.8,768 1751.8,899.6 2014.9,899.6 2014.9,1162.6 		"/>
		<path class="st1" d="M425.2,2041.7c0,240.3,276.3,383.2,607.6,383.2c453,0,633-240.1,633-437.3c0-160.8-60-265.8-241.6-401.9
			c-184.2-134.3-229.2-210.2-53.4-346.2c99.1-76.6,168.5-178.7,168.5-304.8c0-137.3-56.2-261.9-161.8-322.4h149.7l127.4-133.7
			c0,0-480.4,0-570.2,0c-356,0-530.5,213.4-530.5,448.1c0,239.9,164.5,428.8,485.9,428.8c-49.8,100.6-29.8,193.5,51.7,259.9
			C542.7,1615.4,425.2,1856.2,425.2,2041.7z M768.3,923.2c-26.5-201.9,76.5-356.3,230.2-351.8c153.6,4.6,285.1,170.2,311.6,372
			c26.5,201.9-61.9,331.7-215.5,327.2C940.9,1266,794.8,1125,768.3,923.2z M1063.1,1683.7c254.1,0,405.5,158.2,405.5,324.2
			c0,174.1-141.4,310.2-434.2,310.2c-229,0-394.3-144.9-394.3-319.1C640.1,1828.3,834.1,1681.1,1063.1,1683.7z"/>
	</g>
</g>
</svg>
