<?xml version="1.0" encoding="utf-8"?>
<!-- Generator: Adobe Illustrator 19.1.1, SVG Export Plug-In . SVG Version: 6.00 Build 0)  -->
<svg version="1.1" id="圖層_1" xmlns="http://www.w3.org/2000/svg" xmlns:xlink="http://www.w3.org/1999/xlink" x="0px" y="0px"
	 viewBox="0 0 2834.7 2834.7" style="enable-background:new 0 0 2834.7 2834.7;" xml:space="preserve">
<style type="text/css">
	.st0{fill:#1D99D2;}
	.st1{fill:#FFFFFF;}
</style>
<g>
	<path class="st0" d="M2490.7,0H344C154,0,0,154,0,344v2146.7c0,190,154,344,344,344h2146.7c190,0,344-154,344-344V344
		C2834.7,154,2680.7,0,2490.7,0z"/>
	<g id="Layer_2_1_" transform="matrix(1.4377716,0,0,1.4377716,-113.23674,-93.547493)">
		<g id="g10_1_">
			<path id="path12_1_" class="st1" d="M682.7,1167.7c0,0.1-4.5,36.2-9,77.8c-2.3,20.8-4.5,43-6.2,62.8c-0.9,9.9-1.6,19.2-2.1,27.5
				c-0.5,8.3-0.8,15.5-0.8,21.6c0,11.8,1,23.4,3.7,34.6c2.1,8.4,5.2,16.7,9.6,24.5c6.7,11.7,16.3,22.2,28.8,30.8
				c12.6,8.6,27.8,15.5,46.4,21c25.4,7.5,55.3,13.2,83.8,13.3c11,0,21.8-0.9,32.1-3c7.7-1.6,15.3-3.9,22.4-7.2
				c10.6-4.9,20.4-12.2,27.5-22.3c3.6-5,6.4-10.7,8.4-16.9c2-6.1,3.2-12.7,3.6-19.7c1.8-32.7,3.3-75.3,4.4-109.7
				c1.1-34.5,1.7-60.8,1.7-60.8l-35.8-0.8c0,0-0.1,1.6-0.1,4.6c-0.5,20.9-2.8,108.5-6,164.8c-0.4,7.3-2.2,12.4-4.6,16.4
				c-1.9,3-4.2,5.5-7.2,7.8c-4.6,3.4-10.9,6.3-18.9,8.2c-8,1.9-17.4,2.9-27.6,2.9c-23.6,0-50.9-5-73.7-11.8
				c-14.1-4.1-25-9-33.2-14.2c-6.2-3.9-10.9-7.9-14.6-12.2c-5.6-6.3-9.1-13.1-11.5-21.3c-2.4-8.2-3.4-17.8-3.4-28.9
				c0-4.8,0.2-11.5,0.7-19.4c1.7-27.6,6-69.3,9.8-103.8c1.9-17.3,3.8-32.8,5.1-44c0.7-5.6,1.2-10.1,1.6-13.3
				c0.4-3.1,0.6-4.8,0.6-4.8L682.7,1167.7L682.7,1167.7z"/>
		</g>
		<path id="path14_1_" class="st1" d="M968.8,589.4c-20.9,0-37.8,25.3-37.8,56.4c0,31.1,16.9,56.4,37.8,56.4
			c20.9,0,37.9-25.3,37.9-56.4C1006.7,614.7,989.7,589.4,968.8,589.4z M979.6,659.9c-8.9,0-16.2-10.8-16.2-24.2
			c0-13.4,7.3-24.2,16.2-24.2c8.9,0,16.2,10.8,16.2,24.2C995.9,649.1,988.6,659.9,979.6,659.9z"/>
		<path id="path16_1_" class="st1" d="M1169.3,635.4c1.9-3.4,3.8-5.7,5.5-6.9c1.7-1.3,2.9-1.7,4.2-1.7c1.3,0,2.5,0.4,4.2,1.7
			c2.5,1.9,5.7,6.2,8.1,12.7c2.4,6.5,4,15,4,24.3h29.2c0-18.9-4-36.3-11.5-50.1c-3.8-6.9-8.4-12.9-14.1-17.3
			c-5.7-4.4-12.6-7.2-19.8-7.2c-7.2,0-14.1,2.8-19.8,7.2c-8.6,6.7-14.8,16.8-19.1,28.3c-4.3,11.6-6.6,24.9-6.6,39.1h29.2
			C1162.7,653,1165.6,642.1,1169.3,635.4L1169.3,635.4z"/>
		<path id="path18_1_" class="st1" d="M1657.9,1080c-11.7-17.2-24.4-33.1-36.9-47.4c1-1.5,2-3.1,2.9-4.6
			c7.7-12.8,13.3-25.3,16.2-37.7c4.3-19,6.4-37.4,6.4-55c0-30.3-6.3-58.5-18-84.1c-11.6-25.7-28.5-48.7-49.3-69.5l-19.7-19.8
			c-2.2-21.6-6.4-48.9-13.3-85.4c-17.7-92.6-98.9-234.4-198.2-302.7c-96.3-66.2-218.9-92-284.2-92.9c-53.6-0.8-177,19.6-284.2,92.9
			c-99.4,68-187.3,209-198.2,302.7c-6.1,53.2-8,87.1-7.4,112.2l-0.1,0c-1.5,0.3-11.6,2.7-23.5,10.9c-5.9,4.1-12.2,9.8-17.7,17.5
			c-5.4,7.6-9.9,17.3-12.1,28.8c-3.6,17.8-5.4,26.8-6.3,31.4c-2.3,2.9-5.4,7.1-8.6,12.6c-3,5.2-5.9,11.5-8.2,18.9
			c-2.3,7.3-3.8,15.8-3.8,25c0,5.3,0.5,10.8,1.6,16.5c2,10.1,5.9,24.6,12.8,41.9c3.2,8.1,7.1,16.8,11.8,25.9
			c-16.8,17.8-34.3,38.7-50.3,62.1c-54,79.3-113,223.5-104.5,306.2c10.8,104.5,25.2,108.1,61.2,86.5c40.3-24.2,86.5-97.3,86.5-97.3
			s49.2,134.1,129.7,205.4c93.7,82.9,180.1,133.3,284.6,154.9c68.2,14.1,113.3,15.9,136.5,15.5c23.1,0.4,68.3-1.4,136.5-15.5
			c104.5-21.6,190.9-72.1,284.6-154.9c80.5-71.2,129.7-205.4,129.7-205.4s46.2,73.1,86.5,97.3c36,21.6,50.4,18,61.3-86.5
			C1771,1303.5,1712,1159.2,1657.9,1080L1657.9,1080z M1203,503.5c52.7,0,95.5,63.7,95.5,142.3c0,78.6-42.7,142.3-95.5,142.3
			s-95.5-63.7-95.5-142.3C1107.5,567.2,1150.3,503.5,1203,503.5z M936.4,503.5c52.7,0,95.5,63.7,95.5,142.3
			c0,78.6-42.7,142.3-95.5,142.3c-52.7,0-95.5-63.7-95.5-142.3C840.9,567.2,883.7,503.5,936.4,503.5z M866.2,838.6
			c65.6-28.1,185.2-34.6,216-35.8l0.2-0.3c0,0,1.3,0,3.6,0.1c2.3-0.1,3.6-0.1,3.6-0.1l0.2,0.3c30.8,1.2,150.4,7.7,216,35.8
			c75.7,32.4,118.9,50.4,118.9,68.5s-14.4,36-54,54c-39.6,18-57.7,14.4-57.7,14.4s21.6-25.2,28.8-50.4c0,0-108,89.4-238.3,97
			c-1,0.1-2,0.2-3.1,0.2l-0.9,0.1c-2.4,0.1-4.7,0.1-7.1,0.2c-2.1,0.1-4.3,0.1-6.4,0.1c-2.1,0-4.3-0.1-6.4-0.1
			c-2.4,0-4.7-0.1-7.1-0.2l-0.9-0.1c-1.1,0-2-0.1-3.1-0.2c-130.3-7.7-238.3-97-238.3-97c7.2,25.2,28.8,50.4,28.8,50.4
			s-18,3.6-57.6-14.4c-39.6-18-54.1-36-54.1-54S790.5,871,866.2,838.6L866.2,838.6z M539.7,903.2c1.3-1.9,2.5-3.3,3.2-4.2
			c0.4-0.5,0.7-0.7,0.8-0.9l0.1-0.1l3.8-3.8l1.1-5.3c0,0,0,0,7.2-36c1.3-6.6,3.6-11.3,6.3-15.2c1.6-2.2,3.3-4.1,5.1-5.7
			c2.5,6.6,5.7,14.6,9.9,23.5c9.5,19.9,23.9,44.6,45.3,70.5c32.2,38.9,80.4,80.3,150.9,111.7c70.6,31.5,163.4,53,284.8,53
			c5.7,0,11.4-0.1,17.2-0.1c111.7-1.8,199.6-20.5,268.5-47.8c51.7-20.5,92.7-45.9,125-72.6c48.5-40,77.2-82.7,93.9-115.5
			c4.7-9.2,8.4-17.7,11.3-25.1c8.9,11.5,16.2,23.6,22,36.2c9.6,21.2,14.7,44,14.8,69.4c0,14.7-1.8,30.4-5.6,47.1
			c-1.6,7.3-5.6,16.7-11.9,27.1c-11,18.3-29.2,39.6-52.7,61.3c-35.3,32.5-82.6,66-136.2,93.7c-53.6,27.7-113.5,49.8-173.9,60
			c-38.2,6.5-77.8,9.4-117.7,9.4c-76.9,0-154.9-11-226.7-28.3c-71.8-17.3-137.2-41-188.8-66.1c-63.7-31-103.5-71.8-128.5-109.2
			c-12.5-18.6-21.3-36.4-27.4-51.6c-6-15.1-9.4-27.7-11-35.6c-0.7-3.3-0.9-6.5-0.9-9.5c0-5.3,0.9-10.1,2.2-14.5
			C533.9,912.6,537.1,907,539.7,903.2L539.7,903.2z M1427.4,1559.1c-102.8,136.1-302.2,160.5-363.5,164.8
			c-61.3-4.3-260.6-28.7-363.5-164.8c-122.5-162.1-100.9-335.1-86.5-385.5c3.3-11.6,7.6-23.3,12.4-34.6
			c16.5,11.7,34.9,22.7,55.4,32.7c54.3,26.4,121.9,50.8,196,68.7c74.2,17.9,154.8,29.3,235.1,29.3c41.7,0,83.3-3.1,123.7-10
			c98.9-16.8,193.6-62,266.7-113.3c0.3-0.2,0.6-0.4,0.9-0.6c3.6,9.2,7,18.6,9.6,27.9C1528.2,1224.1,1549.9,1397,1427.4,1559.1
			L1427.4,1559.1z"/>
		<path id="path20_1_" class="st1" d="M632.1,1598.1c-12.9-11.4-24.9-24.4-36.1-38.2c-16.2,9.2-36.4,21.5-49.7,32.9
			c-19.7,16.9-28.8,43.2-10.8,46.8c0,0-84.1,83.9,61.2,144.1c147.7,61.2,309.9,43.2,389.1-10.8c3.8-2.6,7.3-5,10.5-7.3
			c-21.7-2.3-48.2-6.2-79.6-12.6C812.2,1731.4,725.7,1680.9,632.1,1598.1L632.1,1598.1z"/>
		<path id="path22_1_" class="st1" d="M1218.5,1753c-31.4,6.5-57.9,10.4-79.6,12.6c3.3,2.3,6.7,4.7,10.5,7.3
			c79.3,54,241.4,72,389.1,10.8c145.3-60.3,61.3-144.1,61.3-144.1c18-3.6,8.9-29.9-10.8-46.8c-13.3-11.4-33.5-23.7-49.7-32.9
			c-11.2,13.8-23.3,26.8-36.1,38.2C1409.4,1680.9,1323,1731.4,1218.5,1753L1218.5,1753z"/>
	</g>
</g>
</svg>
