<?xml version="1.0" encoding="utf-8"?>
<!-- Generator: Adobe Illustrator 19.1.1, SVG Export Plug-In . SVG Version: 6.00 Build 0)  -->
<svg version="1.1" id="圖層_1" xmlns="http://www.w3.org/2000/svg" xmlns:xlink="http://www.w3.org/1999/xlink" x="0px" y="0px"
	 viewBox="0 0 2835.1 2835.1" style="enable-background:new 0 0 2835.1 2835.1;" xml:space="preserve">
<style type="text/css">
	.st0{fill:#454444;}
	.st1{fill:#FFFFFF;}
</style>
<g>
	<circle class="st0" cx="1419.9" cy="1417.5" r="1417.3"/>
	<path class="st1" d="M1845.1,726.6H994.7c-147.6,0-265.7,118.1-265.7,265.7v850.4c0,147.6,118.1,265.7,265.7,265.7h850.4
		c147.6,0,265.7-118.1,265.7-265.7V992.3C2110.8,844.7,1992.7,726.6,1845.1,726.6L1845.1,726.6z M1921.9,886h29.5v236.2h-236.2V886
		H1921.9z M1225,1275.8c41.3-59.1,118.1-100.4,194.9-100.4s153.5,41.3,194.9,100.4c29.5,41.3,47.2,88.6,47.2,141.7
		c0,135.8-112.2,242.1-242.1,242.1c-129.9,0-242.1-106.3-242.1-242.1C1177.8,1364.4,1195.5,1317.1,1225,1275.8z M1975,1842.7
		c0,70.9-59.1,129.9-129.9,129.9H994.7c-70.9,0-129.9-59.1-129.9-129.9v-566.9h206.7c-17.7,41.3-29.5,94.5-29.5,141.7
		c0,206.7,171.3,378,378,378s378-171.3,378-378c0-47.2-11.8-100.4-29.5-141.7H1975L1975,1842.7z"/>
</g>
</svg>
