<?xml version="1.0" encoding="utf-8"?>
<!-- Generator: Adobe Illustrator 19.1.1, SVG Export Plug-In . SVG Version: 6.00 Build 0)  -->
<svg version="1.1" id="圖層_1" xmlns="http://www.w3.org/2000/svg" xmlns:xlink="http://www.w3.org/1999/xlink" x="0px" y="0px"
	 viewBox="0 0 2835.1 2835.1" style="enable-background:new 0 0 2835.1 2835.1;" xml:space="preserve">
<style type="text/css">
	.st0{fill:#43B035;}
	.st1{fill:#FFFFFF;}
</style>
<g>
	<path class="st0" d="M1420.4,2834.2c777.9,0,1415.3-637.4,1415.3-1415.3c0-780.5-637.4-1417.9-1415.3-1417.9
		C639.9,0.9,2.5,638.3,2.5,1418.8C2.5,2196.7,639.9,2834.2,1420.4,2834.2L1420.4,2834.2z"/>
	<g>
		<path class="st1" d="M1842.5,1096.7c-201.8,10.5-377.2,71.7-519.7,209.9c-143.9,139.6-209.6,310.7-191.7,522.8
			c-78.9-9.8-150.7-20.5-222.9-26.6c-25-2.1-54.6,0.9-75.7,12.8c-70.1,39.6-137.4,84.3-217.1,134.1c14.6-66.2,24.1-124.1,40.9-179.8
			c12.3-40.9,6.6-63.7-31.1-90.4c-242.2-171-344.3-426.9-267.9-690.4C428,745.4,601.6,597.5,837.4,520.5
			c322-105.2,683.8,2.1,879.6,257.7C1787.7,870.5,1831.1,974.2,1842.5,1096.7L1842.5,1096.7z M913.9,1014.6
			c1.9-48.2-39.9-91.6-89.5-93.1c-50.8-1.5-92.6,37.3-94,87.4c-1.5,50.7,37.3,91.4,88.4,92.7C869.5,1102.9,912,1064,913.9,1014.6
			L913.9,1014.6z M1398.4,921.6c-49.8,0.9-91.9,43.3-91,91.7c0.9,50.1,42.2,89.4,93.4,88.8c51.3-0.6,90.3-40.3,89.8-91.5
			C1490.1,960.3,1449,920.6,1398.4,921.6z"/>
		<path class="st1" d="M2295.8,2354.7c-63.9-28.4-122.5-71.1-184.9-77.6c-62.2-6.5-127.5,29.4-192.5,36
			c-198.1,20.3-375.6-34.9-521.9-170.3c-278.3-257.4-238.5-652.1,83.4-863.1c286.2-187.5,705.9-125,907.6,135.2
			c176.1,227,155.4,528.3-59.6,719c-62.2,55.2-84.6,100.6-44.7,173.4C2290.7,2320.7,2291.6,2337.7,2295.8,2354.7L2295.8,2354.7z
			 M1568.6,1650.5c40.7,0,74.2-31.8,75.7-72c1.6-42.5-32.6-78.2-75.2-78.4c-42.2-0.2-77.5,36-76,77.9
			C1494.4,1618.1,1528.2,1650.5,1568.6,1650.5L1568.6,1650.5z M2037.4,1500.3c-39.5-0.3-73,32-74.6,71.9
			c-1.7,42.6,31.4,77.7,73.6,77.8c40.8,0.1,73.1-30.7,74.6-71.3C2112.6,1535.9,2079.4,1500.6,2037.4,1500.3z"/>
	</g>
</g>
</svg>
