<?xml version="1.0" encoding="utf-8"?>
<!-- Generator: Adobe Illustrator 19.1.1, SVG Export Plug-In . SVG Version: 6.00 Build 0)  -->
<svg version="1.1" id="圖層_1" xmlns="http://www.w3.org/2000/svg" xmlns:xlink="http://www.w3.org/1999/xlink" x="0px" y="0px"
	 viewBox="0 0 2835.1 2835.1" style="enable-background:new 0 0 2835.1 2835.1;" xml:space="preserve">
<style type="text/css">
	.st0{fill:#34A0D2;}
	.st1{fill:#FFFFFF;}
</style>
<g>
	<circle class="st0" cx="1419.7" cy="1411.5" r="1416.6"/>
	<path class="st1" d="M2328,848c-66.8,29.7-138.6,49.7-214,58.7c77-46.1,136-119.2,163.9-206.2c-73.2,43.5-153.2,74-236.7,90.4
		c-67.9-72.4-164.8-117.6-272-117.6c-205.7,0-372.6,166.8-372.6,372.7c0,29.2,3.3,57.6,9.6,84.9C1096.4,1115.4,821.8,967,638,741.6
		c-32.1,55.1-50.5,119.1-50.5,187.4c0,129.3,65.8,243.3,165.8,310.2c-59.2-1.8-117.1-17.8-168.8-46.6v4.7
		c0,180.6,128.4,331.1,298.9,365.4c-31.3,8.6-64.2,13.1-98.2,13.1c-24,0-47.4-2.3-70.2-6.6c47.4,148,185.1,255.7,348.1,258.8
		c-127.5,100-288.3,159.6-462.8,159.6c-30.1,0-59.8-1.8-88.9-5.3c164.9,105.8,360.8,167.5,571.3,167.5
		c685.4,0,1060.3-567.9,1060.3-1060.3c0-16.2-0.4-32.2-1.1-48.2C2214.9,988.4,2277.9,923,2328,848L2328,848z"/>
</g>
</svg>
