<?xml version="1.0" encoding="utf-8"?>
<!-- Generator: Adobe Illustrator 19.1.1, SVG Export Plug-In . SVG Version: 6.00 Build 0)  -->
<svg version="1.1" id="圖層_1" xmlns="http://www.w3.org/2000/svg" xmlns:xlink="http://www.w3.org/1999/xlink" x="0px" y="0px"
	 viewBox="0 0 381 380.7" style="enable-background:new 0 0 381 380.7;" xml:space="preserve">
<path d="M99.5,104.1c1.4-1.6,2.8-3.1,4.4-4.9C94.8,86.7,90.4,73,91.5,57.8C93.2,34.7,104.3,17.3,125,7c21.2-10.6,42.2-8.9,62.2,3.9
	c2.4,1.6,3.9,2,6.5,0.2c25.8-17.1,57.6-13.8,79,7.9c20.4,20.6,22.8,52.9,5.9,78c-0.4,0.5-0.7,1.1-1.6,2.5c1.6,1.2,3.3,2.4,4.1,2.9
	c9.2-3.5,17.9-7.9,27.1-9.9c24.2-5.2,49.1,5.3,62.4,26.2c14.1,22.2,13.9,44.9,0.2,67.3c-2,3.3-2.3,5.2-0.1,8.6
	c16,23.9,12.8,56.3-7.3,76.7c-20.4,20.7-52.2,24.2-77.1,8.5c-1.4-0.9-2.8-1.8-4.3-2.7c-1.7,1.5-3.3,2.9-4.9,4.3
	c12.4,17.5,16,36.1,10,56c-11.9,39.2-58.7,55.6-92.9,32.6c-2.5-1.7-4.1-2.1-6.9-0.3c-24.9,16.6-57.2,13.7-78-7
	c-20.9-20.8-23.9-53.1-7.2-78.4c0.5-0.8,1-1.7,1.9-3c-1.5-1.5-3-3-4.7-4.6c-12.4,8.9-25.7,13.5-40.6,12.5
	c-23.3-1.5-41-12.4-51.6-33.2c-10.6-20.7-9.2-41.5,3.1-61.3c2.2-3.5,2.3-5.6,0-9.1c-16.2-24.7-12.4-56.7,9-77.7
	c20.3-19.9,52.7-22.7,76.8-6.5C97,102.4,97.9,103,99.5,104.1z M174.7,108.5c-5.3,5.4-10.4,10.8-15.8,16c-3.6,3.4-7,6.6-4.6,12.3
	c0.3,0.8,0,2-0.2,3c-1.1,6.6-4.7,11.4-11.1,13.6c-6.6,2.3-12.6,0.8-17.5-4c-9.9-9.7-19.5-19.6-29.4-29.3
	c-14.7-14.5-32-18.9-51.3-11.6c-19.3,7.3-29.4,22.3-30.6,42.8c-0.6,11,2.6,21.1,9.9,30.2c5.4-5.4,10.4-10.6,15.5-15.5
	c3.7-3.6,7.9-6.9,5.1-13c-0.3-0.7,0-1.6,0.2-2.5c1.1-6.7,4.7-11.4,11-13.6c6.5-2.3,12.6-0.9,17.5,3.9c10.1,9.9,20,20.1,30.1,30
	c15.7,15.4,37.9,18.6,57,8.2C185.8,165.1,193.1,129.4,174.7,108.5z M199.4,23.9c5.3,5.3,10.2,10,14.9,14.9c3.9,4.1,7.4,8.7,14.2,5.9
	c0.5-0.2,1.3,0,2,0.1c6.6,1.1,11.4,4.6,13.7,10.9c2.4,6.7,0.9,12.9-4.1,17.9c-9.7,9.9-19.5,19.6-29.3,29.3
	c-11.3,11.2-16.3,24.7-14.2,40.3c2.4,18.2,12.4,31.1,29.4,37.9c16.3,6.6,31.9,4.2,46.7-6.4c-7.1-7.1-13.9-13.9-20.8-20.6
	c-0.8-0.8-2.7-0.9-4-0.7c-8.8,1.3-15.5-1.5-19.1-8.3c-3.7-7-2.3-14.5,4-20.9c9.4-9.4,18.8-18.9,28.3-28.3
	c11.2-11.1,16.5-24.5,14.5-40.3c-2.3-18-12.1-30.9-28.6-38C230.5,10.9,214.8,13.3,199.4,23.9z M108.6,206.2
	c5.3,5.3,10.8,10.4,16,15.8c3.4,3.6,6.5,7.1,12.2,4.7c0.8-0.4,2,0,3,0.1c6.4,1.1,11.1,4.6,13.4,10.7c2.5,6.7,1.1,12.9-3.9,18
	c-10,10.2-20.2,20.3-30.3,30.5c-24.6,24.8-14.9,66.9,18.1,78.2c15.8,5.4,30.6,2.9,44.5-7.2c-7-7-13.5-13.6-20.3-20.1
	c-1-1-3.2-1.4-4.8-1.2c-8.4,1.2-15.2-1.7-18.7-8.3c-3.8-7.1-2.4-14.5,3.9-20.9c9.6-9.7,19.4-19.3,29-29
	c14.5-14.8,18.3-35.1,10.1-53.4C168.3,196.2,131,186.7,108.6,206.2z M206.4,272.4c6.8-6.9,13.4-13.5,19.8-20.3c0.9-1,1.4-3,1.2-4.4
	c-1.2-9.2,1.6-15.8,8.8-19.3c7.1-3.5,14.2-2,20.8,4.5c9.6,9.5,19,19.2,28.6,28.6c15.5,15.2,37.5,18.5,56.2,8.7
	c25.8-13.5,33.7-49.7,15-70.8c-4.7,4.8-9.3,9.6-14,14.2c-4.2,4.1-9.5,7.7-6.4,15c0.2,0.4-0.1,1-0.1,1.5c-1,6.6-4.4,11.5-10.7,13.9
	c-6.5,2.4-12.6,1.3-17.6-3.5c-10.3-10-20.3-20.2-30.5-30.3c-12.9-12.7-28.4-16.9-45.9-12.6C199.1,205.7,185,246.7,206.4,272.4z
	 M115.4,90.4c6.7-6.8,13.4-13.5,19.9-20.4c0.9-1,1.3-3,1.1-4.4c-1.2-8.7,1.7-15.5,8.5-19c7.1-3.6,14.5-2.2,20.9,4.2
	c10,10,20.1,20,30,30.1c3.2,3.3,6.1,7,8.4,9.7c8.1-8.1,15.1-15.1,21.8-21.7c-14-14.2-27.9-29.3-42.8-43.3
	c-11.7-10.9-26.4-13.7-41.9-10C108.2,23.4,93.6,65,115.4,90.4z M311.6,226.2c14.8-14.5,30.1-28.4,44.2-43.5
	c10.9-11.7,13.7-26.6,9.6-42c-9.5-35.7-50.8-45.2-74.8-25.4c4.8,4.7,9.6,9.3,14.3,13.9c4.2,4.1,7.6,9.7,14.9,6.5
	c0.5-0.2,1.3,0.1,2,0.2c6.6,1.1,11.3,4.8,13.6,11.1c2.4,6.8,0.6,12.8-4.4,17.9c-12.2,12.3-24.5,24.6-36.8,36.7
	c-1.3,1.3-3.2,1.9-4.5,2.6C298,212.6,304.9,219.5,311.6,226.2z M90.6,265.7c-7-6.9-13.7-13.6-20.5-20.2c-0.9-0.9-3-1.1-4.4-0.9
	c-8.8,1.2-15.4-1.7-19-8.6c-3.6-7-2.3-14.2,3.9-20.5c9.3-9.3,18.6-18.6,27.9-27.9c4.1-4.1,8.3-8.1,11.8-11.5
	c-7.6-7.6-14.6-14.6-21.4-21.5c-14.2,14.1-29.4,27.9-43.2,43c-16.5,18.1-15.3,46,1.6,63.5C44.2,278.6,71.3,280.8,90.6,265.7z
	 M265.8,290.4c-6.8,6.8-13.4,13.4-19.8,20.1c-1,1.1-1.5,3.3-1.3,4.8c1.2,8.6-1.8,15.5-8.6,19c-6.8,3.5-14.5,2-20.5-4
	c-12.1-12.1-24.3-24.3-36.4-36.4c-1.3-1.3-2.6-2.5-3.3-3.2c-7.4,7.4-14.5,14.4-20.7,20.6c14.3,14.8,28.1,30.7,43.6,44.7
	c17.7,16,45.6,13.9,62.7-2.8C278.8,336.5,280.8,309.5,265.8,290.4z M160.4,64c-16.9,16.9-34,34-50.6,50.6
	c6.7,6.7,13.7,13.7,20.2,20.2c16.8-16.8,34-34,50.6-50.6C173.8,77.6,166.8,70.5,160.4,64z M317,160.6
	c-17.2-17.2-34.3-34.3-50.8-50.8c-6.6,6.6-13.6,13.6-19.9,20c16.8,16.8,33.9,33.9,50.7,50.7C303.6,174,310.5,167.1,317,160.6z
	 M134.9,251.1c-16.8-16.8-34-34-50.6-50.6c-6.7,6.7-13.7,13.7-20.3,20.2c16.9,16.9,34,34,50.7,50.7
	C121.3,264.7,128.4,257.7,134.9,251.1z M200.3,296.2c7.1,7.1,14.1,14.1,20.6,20.5c16.8-16.8,33.9-33.9,50.5-50.5
	c-6.6-6.7-13.6-13.7-20.5-20.6C234.1,262.4,217.1,279.4,200.3,296.2z M172.2,188.6c6.6,6.7,13.6,13.8,18.2,18.5
	c5-5,12.1-12,18.5-18.4c-4.9-4.9-11.9-11.9-18.3-18.4C183.9,176.9,177,183.8,172.2,188.6z"/>
</svg>
