<?xml version="1.0" encoding="utf-8"?>
<!-- Generator: Adobe Illustrator 19.1.1, SVG Export Plug-In . SVG Version: 6.00 Build 0)  -->
<svg version="1.1" id="圖層_1" xmlns="http://www.w3.org/2000/svg" xmlns:xlink="http://www.w3.org/1999/xlink" x="0px" y="0px"
	 viewBox="0 0 403.5 80.8" style="enable-background:new 0 0 403.5 80.8;" xml:space="preserve">
<g>
	<path d="M21.1,22.1c0.3-0.3,0.6-0.7,0.9-1c-1.9-2.6-2.9-5.5-2.6-8.8c0.4-4.9,2.7-8.6,7.1-10.8c4.5-2.3,9-1.9,13.2,0.8
		c0.5,0.3,0.8,0.4,1.4,0.1C46.6-1.3,53.3-0.6,57.8,4c4.3,4.4,4.8,11.2,1.3,16.6c-0.1,0.1-0.2,0.2-0.3,0.5c0.3,0.2,0.7,0.5,0.9,0.6
		c2-0.7,3.8-1.7,5.8-2.1c5.1-1.1,10.4,1.1,13.2,5.6c3,4.7,2.9,9.5,0,14.3c-0.4,0.7-0.5,1.1,0,1.8c3.4,5.1,2.7,12-1.6,16.3
		C72.7,62,66,62.7,60.7,59.4c-0.3-0.2-0.6-0.4-0.9-0.6c-0.4,0.3-0.7,0.6-1,0.9c2.6,3.7,3.4,7.7,2.1,11.9
		c-2.5,8.3-12.4,11.8-19.7,6.9c-0.5-0.4-0.9-0.5-1.5-0.1C34.5,82,27.6,81.4,23.2,77c-4.4-4.4-5.1-11.3-1.5-16.6
		c0.1-0.2,0.2-0.4,0.4-0.6c-0.3-0.3-0.6-0.6-1-1c-2.6,1.9-5.5,2.9-8.6,2.7c-5-0.3-8.7-2.6-11-7c-2.2-4.4-2-8.8,0.7-13
		c0.5-0.7,0.5-1.2,0-1.9c-3.4-5.2-2.6-12,1.9-16.5c4.3-4.2,11.2-4.8,16.3-1.4C20.6,21.7,20.8,21.9,21.1,22.1z M37.1,23
		c-1.1,1.1-2.2,2.3-3.4,3.4c-0.8,0.7-1.5,1.4-1,2.6c0.1,0.2,0,0.4,0,0.6c-0.2,1.4-1,2.4-2.4,2.9c-1.4,0.5-2.7,0.2-3.7-0.9
		c-2.1-2.1-4.1-4.2-6.2-6.2c-3.1-3.1-6.8-4-10.9-2.5c-4.1,1.6-6.2,4.7-6.5,9.1c-0.1,2.3,0.6,4.5,2.1,6.4c1.1-1.2,2.2-2.2,3.3-3.3
		c0.8-0.8,1.7-1.5,1.1-2.8c-0.1-0.1,0-0.3,0-0.5c0.2-1.4,1-2.4,2.3-2.9c1.4-0.5,2.7-0.2,3.7,0.8c2.1,2.1,4.2,4.3,6.4,6.4
		c3.3,3.3,8,3.9,12.1,1.7C39.4,35,41,27.5,37.1,23z M42.3,5.1c1.1,1.1,2.2,2.1,3.2,3.2c0.8,0.9,1.6,1.8,3,1.3c0.1,0,0.3,0,0.4,0
		c1.4,0.2,2.4,1,2.9,2.3c0.5,1.4,0.2,2.7-0.9,3.8c-2.1,2.1-4.1,4.2-6.2,6.2c-2.4,2.4-3.5,5.2-3,8.6c0.5,3.9,2.6,6.6,6.2,8
		c3.5,1.4,6.8,0.9,9.9-1.3c-1.5-1.5-2.9-3-4.4-4.4c-0.2-0.2-0.6-0.2-0.8-0.2c-1.9,0.3-3.3-0.3-4.1-1.8c-0.8-1.5-0.5-3.1,0.8-4.4
		c2-2,4-4,6-6c2.4-2.4,3.5-5.2,3.1-8.5C58,8,55.9,5.3,52.4,3.8C48.9,2.3,45.6,2.8,42.3,5.1z M23,43.8c1.1,1.1,2.3,2.2,3.4,3.4
		c0.7,0.8,1.4,1.5,2.6,1c0.2-0.1,0.4,0,0.6,0c1.4,0.2,2.3,1,2.8,2.3c0.5,1.4,0.2,2.7-0.8,3.8c-2.1,2.2-4.3,4.3-6.4,6.5
		c-5.2,5.3-3.2,14.2,3.8,16.6c3.3,1.1,6.5,0.6,9.4-1.5c-1.5-1.5-2.9-2.9-4.3-4.3c-0.2-0.2-0.7-0.3-1-0.2c-1.8,0.3-3.2-0.4-4-1.8
		c-0.8-1.5-0.5-3.1,0.8-4.4c2-2.1,4.1-4.1,6.1-6.2c3.1-3.1,3.9-7.4,2.1-11.3C35.7,41.6,27.8,39.6,23,43.8z M43.8,57.8
		c1.4-1.5,2.8-2.9,4.2-4.3c0.2-0.2,0.3-0.6,0.3-0.9c-0.3-2,0.3-3.3,1.9-4.1c1.5-0.7,3-0.4,4.4,1c2,2,4,4.1,6.1,6.1
		c3.3,3.2,8,3.9,11.9,1.8c5.5-2.9,7.1-10.5,3.2-15c-1,1-2,2-3,3c-0.9,0.9-2,1.6-1.3,3.2c0,0.1,0,0.2,0,0.3c-0.2,1.4-0.9,2.4-2.3,2.9
		c-1.4,0.5-2.7,0.3-3.7-0.7c-2.2-2.1-4.3-4.3-6.5-6.4c-2.7-2.7-6-3.6-9.7-2.7C42.2,43.6,39.2,52.3,43.8,57.8z M24.5,19.2
		c1.4-1.4,2.8-2.9,4.2-4.3c0.2-0.2,0.3-0.6,0.2-0.9c-0.3-1.9,0.4-3.3,1.8-4c1.5-0.8,3.1-0.5,4.4,0.9c2.1,2.1,4.3,4.2,6.4,6.4
		c0.7,0.7,1.3,1.5,1.8,2.1c1.7-1.7,3.2-3.2,4.6-4.6c-3-3-5.9-6.2-9.1-9.2c-2.5-2.3-5.6-2.9-8.9-2.1C23,5,19.9,13.8,24.5,19.2z
		 M66.1,48c3.1-3.1,6.4-6,9.4-9.2c2.3-2.5,2.9-5.6,2-8.9c-2-7.6-10.8-9.6-15.9-5.4c1,1,2,2,3,3c0.9,0.9,1.6,2.1,3.2,1.4
		c0.1,0,0.3,0,0.4,0c1.4,0.2,2.4,1,2.9,2.4c0.5,1.4,0.1,2.7-0.9,3.8c-2.6,2.6-5.2,5.2-7.8,7.8c-0.3,0.3-0.7,0.4-1,0.6
		C63.2,45.1,64.7,46.6,66.1,48z M19.2,56.4c-1.5-1.5-2.9-2.9-4.4-4.3c-0.2-0.2-0.6-0.2-0.9-0.2c-1.9,0.3-3.3-0.4-4-1.8
		c-0.8-1.5-0.5-3,0.8-4.3c2-2,3.9-4,5.9-5.9c0.9-0.9,1.8-1.7,2.5-2.4c-1.6-1.6-3.1-3.1-4.5-4.6c-3,3-6.2,5.9-9.2,9.1
		c-3.5,3.8-3.2,9.8,0.3,13.5C9.4,59.1,15.1,59.6,19.2,56.4z M56.4,61.6c-1.4,1.4-2.8,2.8-4.2,4.3c-0.2,0.2-0.3,0.7-0.3,1
		c0.3,1.8-0.4,3.3-1.8,4c-1.4,0.7-3.1,0.4-4.3-0.8c-2.6-2.6-5.1-5.1-7.7-7.7c-0.3-0.3-0.5-0.5-0.7-0.7c-1.6,1.6-3.1,3.1-4.4,4.4
		c3,3.1,6,6.5,9.2,9.5c3.8,3.4,9.7,3,13.3-0.6C59.1,71.4,59.6,65.7,56.4,61.6z M34,13.6c-3.6,3.6-7.2,7.2-10.7,10.7
		c1.4,1.4,2.9,2.9,4.3,4.3c3.6-3.6,7.2-7.2,10.7-10.7C36.9,16.5,35.4,15,34,13.6z M67.2,34.1c-3.6-3.6-7.3-7.3-10.8-10.8
		c-1.4,1.4-2.9,2.9-4.2,4.2c3.6,3.6,7.2,7.2,10.8,10.8C64.4,36.9,65.9,35.4,67.2,34.1z M28.6,53.3c-3.6-3.6-7.2-7.2-10.7-10.7
		c-1.4,1.4-2.9,2.9-4.3,4.3c3.6,3.6,7.2,7.2,10.7,10.7C25.7,56.2,27.2,54.7,28.6,53.3z M42.5,62.8c1.5,1.5,3,3,4.4,4.4
		c3.6-3.6,7.2-7.2,10.7-10.7c-1.4-1.4-2.9-2.9-4.4-4.4C49.7,55.7,46,59.3,42.5,62.8z M36.5,40c1.4,1.4,2.9,2.9,3.9,3.9
		c1.1-1.1,2.6-2.5,3.9-3.9c-1-1-2.5-2.5-3.9-3.9C39,37.5,37.5,39,36.5,40z"/>
	<g>
		<path d="M94.6,55.1l0-1c0.3-7,2-13.6,5.3-19.9c3-5.7,6.8-10.3,11.4-13.8c4.5-3.5,9-5.2,13.3-5.2c3.3,0,5.9,1.1,7.8,3.4
			c1.6,2,2.4,4.4,2.4,7.2c0,3.4-1.3,6.8-3.8,10.1c-1.5,1.9-3,3.3-4.6,4.1c-0.8,0.4-1.5,0.6-2.2,0.6s-1.3-0.1-1.8-0.4
			s-1.1-0.6-1.5-1.1c-0.9-0.9-1.3-1.7-1.3-2.5s0.2-1.2,0.6-1.5c3.8-2.8,6.5-5.6,7.8-8.5c0.5-1.1,0.8-2.2,0.8-3.3
			c0-2.3-1.1-3.4-3.2-3.4c-3.4,0-6.9,1.8-10.4,5.5c-3.4,3.4-6.2,7.7-8.4,12.8c-2.4,5.3-3.6,10.1-3.8,14.5l0,1.3
			c0,5.3,1.1,8.7,3.3,10.4c0.8,0.6,1.8,0.9,2.9,0.9s2.2-0.1,3.1-0.4s2-0.7,3-1.2c1.6-0.8,3.6-2.2,6.1-4.3c0.8-0.6,1.4-0.5,1.9,0.2
			c0.4,0.6,0.6,1.3,0.6,2.1c0,1.3-0.2,2.2-0.5,2.7s-1,1-1.9,1.7s-2,1.3-3.2,1.8c-3,1.3-5.8,2-8.7,2s-5.1-0.3-6.9-1s-3.2-1.7-4.4-3
			C95.8,63.5,94.6,59.8,94.6,55.1z"/>
		<path d="M135.3,67.4c-1-0.9-1.8-2.1-2.3-3.6c-0.6-1.4-0.9-3.1-0.9-5.1s0.2-4,0.7-6s1.2-4,2.1-5.8s2-3.6,3.3-5.3s2.7-3.1,4.3-4.3
			c3.4-2.6,7-3.9,10.7-3.9c4.8,0,8.1,2.1,9.8,6.4c1.2,3.1,1.3,6.8,0.2,11.1c-1,4-2.8,7.7-5.4,11c-2.6,3.4-5.7,5.7-9.2,7.1
			c-1.8,0.7-3.5,1.1-5.3,1.1s-3.3-0.2-4.6-0.7S136.3,68.4,135.3,67.4z M142.1,50.4c-0.7,1.7-1.3,3.5-1.7,5.3s-0.6,3.6-0.6,5.2
			s0.3,2.9,0.8,3.8c0.5,0.9,1.3,1.4,2.3,1.4s2.1-0.4,3.2-1.1s2.1-1.7,3-2.9s1.9-2.6,2.8-4.2s1.6-3.3,2.3-5c1.4-3.8,2.1-7.1,2.1-10.1
			c0-2.6-0.5-4.2-1.6-4.9c-0.4-0.3-1-0.4-1.8-0.4s-1.6,0.3-2.6,1s-2,1.6-3,2.8s-1.9,2.5-2.8,4.1S142.8,48.7,142.1,50.4z"/>
		<path d="M170.8,68.4c-0.6-0.6-1.1-1.4-1.4-2.3s-0.5-2.1-0.5-3.3c0-1.3,0.3-2.9,0.9-5s1.3-4.5,2.2-7.2l3-8.8
			c4.2-12.2,6.6-21.6,7.3-28.3c0.2-2,1.2-3,2.9-3c1.1,0,2,0.3,2.7,0.8c1.4,1,2,2.2,2,3.4s-0.3,2.8-0.7,4.6s-0.9,3.8-1.5,5.9
			s-1.4,4.4-2.2,6.8l-4.9,14.3c-2.8,8.1-4.2,13.3-4.2,15.7c0,1.3,0.5,1.9,1.5,1.9c1,0,1.9-0.2,2.7-0.6s1.3-0.6,1.6-0.6
			c0.5,0,0.7,0.2,0.7,0.7c0,2.1-1.1,3.8-3.2,5.2c-1.4,1-2.7,1.4-3.9,1.4s-2.1-0.1-2.9-0.4S171.4,69,170.8,68.4z"/>
		<path d="M192.5,67.4c-1-0.9-1.8-2.1-2.3-3.6c-0.6-1.4-0.9-3.1-0.9-5.1s0.2-4,0.7-6s1.2-4,2.1-5.8s2-3.6,3.3-5.3s2.7-3.1,4.3-4.3
			c3.4-2.6,7-3.9,10.7-3.9c4.8,0,8.1,2.1,9.8,6.4c1.2,3.1,1.3,6.8,0.2,11.1c-1,4-2.8,7.7-5.4,11c-2.6,3.4-5.7,5.7-9.2,7.1
			c-1.8,0.7-3.5,1.1-5.3,1.1s-3.3-0.2-4.6-0.7S193.5,68.4,192.5,67.4z M199.2,50.4c-0.7,1.7-1.3,3.5-1.7,5.3s-0.6,3.6-0.6,5.2
			s0.3,2.9,0.8,3.8c0.5,0.9,1.3,1.4,2.3,1.4s2.1-0.4,3.2-1.1s2.1-1.7,3-2.9s1.9-2.6,2.8-4.2s1.6-3.3,2.3-5c1.4-3.8,2.1-7.1,2.1-10.1
			c0-2.6-0.5-4.2-1.6-4.9c-0.4-0.3-1-0.4-1.8-0.4s-1.6,0.3-2.6,1s-2,1.6-3,2.8s-1.9,2.5-2.8,4.1S199.9,48.7,199.2,50.4z"/>
		<path d="M226.4,69c-0.5-0.4-0.8-0.7-1.1-1.2s-0.4-0.8-0.5-1.1s0-0.7,0.2-1.2s0.4-1,0.6-1.7c4.8-11.8,7.2-19.7,7.2-23.7
			c-0.1-1.1-0.5-1.9-1.2-2.4l-0.7-0.5c-0.2-0.2-0.3-0.5-0.3-0.9s0.1-0.8,0.4-1.2s0.7-0.7,1.2-1c1-0.5,2-0.8,3.1-0.8s1.9,0.1,2.5,0.4
			s1.1,0.6,1.5,0.9c0.9,0.8,1.3,1.7,1.4,2.7s-0.1,1.9-0.3,2.8s-0.5,1.9-0.8,2.8s-0.6,1.8-0.9,2.6s-0.5,1.4-0.6,1.8
			c-0.2,0.8-0.3,1.3-0.2,1.5c0.6-0.5,0.9-1,1-1.4l1.4-2.6c3-5.5,6-9.1,8.9-10.9c0.8-0.5,1.9-0.7,3-0.7s2.1,0.4,2.9,1.2
			s1.1,1.8,1.1,2.8s0,1.8-0.2,2.5s-0.4,1.3-0.8,1.9c-0.8,1.3-1.7,2-2.8,2c-0.3,0-0.6-0.1-0.8-0.3l-0.8-0.7c-0.8-0.7-1.5-1-2.2-1
			s-1.6,0.5-2.6,1.4s-2.1,2.1-3.2,3.6c-3.7,4.9-6.7,10.4-9.1,16.5l-1.5,4.1c-0.4,1-0.8,1.7-1.1,2.2s-0.8,0.7-1.4,0.7
			s-1.2-0.1-1.8-0.3S226.8,69.3,226.4,69z"/>
		<path d="M258.5,55.1l0-1c0.3-7,2-13.6,5.3-19.9c3-5.7,6.8-10.3,11.4-13.8c4.5-3.5,9-5.2,13.3-5.2c3.3,0,5.9,1.1,7.8,3.4
			c1.6,2,2.4,4.4,2.4,7.2c0,3.4-1.3,6.8-3.8,10.1c-1.5,1.9-3,3.3-4.6,4.1c-0.8,0.4-1.5,0.6-2.2,0.6s-1.3-0.1-1.8-0.4
			s-1.1-0.6-1.5-1.1c-0.9-0.9-1.3-1.7-1.3-2.5s0.2-1.2,0.6-1.5c3.8-2.8,6.5-5.6,7.8-8.5c0.5-1.1,0.8-2.2,0.8-3.3
			c0-2.3-1.1-3.4-3.2-3.4c-3.4,0-6.9,1.8-10.4,5.5c-3.4,3.4-6.2,7.7-8.4,12.8c-2.4,5.3-3.6,10.1-3.8,14.5l0,1.3
			c0,5.3,1.1,8.7,3.3,10.4c0.8,0.6,1.8,0.9,2.9,0.9s2.2-0.1,3.1-0.4s2-0.7,3-1.2c1.6-0.8,3.6-2.2,6.1-4.3c0.8-0.6,1.4-0.5,1.9,0.2
			c0.4,0.6,0.6,1.3,0.6,2.1c0,1.3-0.2,2.2-0.5,2.7s-1,1-1.9,1.7s-2,1.3-3.2,1.8c-3,1.3-5.8,2-8.7,2s-5.1-0.3-6.9-1s-3.2-1.7-4.4-3
			C259.7,63.5,258.5,59.8,258.5,55.1z"/>
		<path d="M299.3,67.4c-1-0.9-1.8-2.1-2.3-3.6c-0.6-1.4-0.9-3.1-0.9-5.1s0.2-4,0.7-6s1.2-4,2.1-5.8s2-3.6,3.3-5.3s2.7-3.1,4.3-4.3
			c3.4-2.6,7-3.9,10.7-3.9c4.8,0,8.1,2.1,9.8,6.4c1.2,3.1,1.3,6.8,0.2,11.1c-1,4-2.8,7.7-5.4,11c-2.6,3.4-5.7,5.7-9.2,7.1
			c-1.8,0.7-3.5,1.1-5.3,1.1s-3.3-0.2-4.6-0.7S300.3,68.4,299.3,67.4z M306,50.4c-0.7,1.7-1.3,3.5-1.7,5.3s-0.6,3.6-0.6,5.2
			s0.3,2.9,0.8,3.8c0.5,0.9,1.3,1.4,2.3,1.4s2.1-0.4,3.2-1.1s2.1-1.7,3-2.9s1.9-2.6,2.8-4.2s1.6-3.3,2.3-5c1.4-3.8,2.1-7.1,2.1-10.1
			c0-2.6-0.5-4.2-1.6-4.9c-0.4-0.3-1-0.4-1.8-0.4s-1.6,0.3-2.6,1s-2,1.6-3,2.8s-1.9,2.5-2.8,4.1S306.7,48.7,306,50.4z"/>
		<path d="M368.1,62.7c0.5,0,0.7,0.3,0.7,0.8c0,2-1,3.8-3.1,5.2c-1.4,1-2.7,1.5-3.9,1.5s-2.2-0.1-2.9-0.4s-1.4-0.7-2-1.3
			c-1.3-1.4-2-3.3-2-5.8c0-0.5,0.1-1.3,0.3-2.4c-1.9,2.9-3.5,5-4.9,6.2c-2.7,2.5-5.4,3.7-8.1,3.7c-4.1,0-6.9-1.9-8.2-5.6
			c-0.5-1.4-0.7-3.1-0.7-5.2s0.3-4.2,0.9-6.3s1.5-4.2,2.6-6.1s2.4-3.7,3.8-5.4s3-3.1,4.6-4.3c3.4-2.6,6.5-3.8,9.3-3.8s5,1.1,6.6,3.4
			c4.1-14,7.1-22.2,9.2-24.7c0.9-1,1.8-1.5,2.7-1.5c1.6,0,2.8,0.5,3.6,1.4c0.3,0.3,0.4,0.6,0.4,0.9s-0.2,0.9-0.6,1.7s-0.9,2.1-1.7,4
			c-2.1,5.5-3.6,9.5-4.4,12.1c-2.2,6.5-3.6,11-4.4,13.5l-1.9,6.5c-1.7,5.8-2.5,9.5-2.5,11s0.6,2.4,1.7,2.4c1.1,0,1.9-0.1,2.5-0.4
			l1.3-0.6C367.7,62.8,367.9,62.7,368.1,62.7z M344,64.9c2.4,0,5.2-2.4,8.3-7.1c3.3-4.9,5.5-10.2,6.8-15.9c-0.1-1.6-0.8-2.8-2-3.5
			c-0.4-0.3-1.1-0.4-1.9-0.4s-1.9,0.3-3,0.9s-2.2,1.5-3.3,2.5s-2.1,2.3-3,3.7s-1.7,2.9-2.4,4.5c-1.5,3.5-2.2,6.9-2.2,10.2
			S342.2,64.9,344,64.9z"/>
		<path d="M373.5,57.5c0.1-2,0.4-4,1-5.9s1.4-3.7,2.4-5.4s2.1-3.4,3.5-5s2.8-2.9,4.3-4.1c3.4-2.5,6.7-3.8,10.2-3.8c4,0,6.7,1.7,8,5
			c0.5,1.1,0.7,2.5,0.7,4s-0.3,3-0.9,4.3s-1.3,2.5-2.3,3.6s-2.2,2-3.6,2.9s-2.9,1.6-4.5,2.1c-3.3,1.2-6.9,1.8-10.7,1.8
			c-0.1,0.3-0.2,0.8-0.2,1.5s0,1.4,0.2,2.2s0.4,1.5,0.8,2.2c0.8,1.4,2.1,2.1,3.7,2.1c2.7,0,5.4-0.8,7.9-2.4c0.9-0.5,1.7-1.1,2.2-1.7
			s1.1-0.9,1.5-0.9s0.8,0.3,1.1,0.8s0.5,1.1,0.5,1.7c0,1.2-0.4,2.3-1.1,3.2c-3,3-7.3,4.4-13.2,4.4c-3.4,0-6.2-1-8.3-3.1
			C374.5,64.8,373.3,61.6,373.5,57.5z M394,38.1c-2.5,0-4.8,1.7-7.1,5.1c-1.9,2.9-3.5,6.4-4.6,10.3c3.9-0.4,7.3-1.9,10.2-4.6
			c2.6-2.5,4-5,4-7.3S395.6,38.1,394,38.1z"/>
	</g>
</g>
</svg>
